<svg xmlns="http://www.w3.org/2000/svg" fill="none" viewBox="1.06 45 101.11 64.72">
<path d="M65.4931 78.9818C64.2674 79.2563 63.0735 79.7648 61.9856 80.4754C59.1514 82.2813 57.5025 84.8592 58.3029 86.2328C59.1032 87.6063 62.0496 87.255 64.8838 85.4491C65.9863 84.7637 66.9657 83.8876 67.7618 82.8752C68.1312 82.386 68.1975 81.7765 67.9311 81.3208L66.8914 79.5365C66.6269 79.0794 66.0781 78.862 65.4931 78.9818Z" fill="#D5D6DB"/>
<path d="M58.3759 54.6236C57.4871 54.8228 56.6214 55.1917 55.8325 55.707C53.7779 57.0162 52.5815 58.8854 53.1614 59.8805C53.7413 60.8757 55.8785 60.6207 57.9329 59.3117C58.7323 58.8144 59.4424 58.1789 60.0198 57.4446C60.2873 57.0901 60.3353 56.6485 60.1422 56.3181L59.3893 55.0261C59.1978 54.6948 58.8002 54.5368 58.3759 54.6236Z" fill="#D5D6DB"/>
<path d="M46.8126 55.6436C46.6147 55.6216 46.4037 55.6743 46.2208 55.7912L41.3946 58.8667C40.9909 59.1232 40.8294 59.6171 41.0342 59.9701C41.081 60.0509 41.1451 60.12 41.2229 60.1733L53.1179 68.3714L69.2106 58.116L46.8126 55.6436Z" fill="#029BC5"/>
<path d="M97.6863 54.4844L53.8918 82.0543L27.9818 92.3644L14.768 94.991L13.3143 92.521L86.313 47.4498C88.4885 46.1008 90.912 45.2728 93.3384 45.0499C94.401 44.9579 95.4503 44.9932 96.462 45.1546C97.359 45.2906 98.2099 45.5529 98.9892 45.9338C99.859 46.3654 101.515 46.4151 102.051 47.2749C102.053 47.2736 103.318 51.221 97.6863 54.4844V54.4844Z" fill="#E1E6E9"/>
<path d="M54.4723 78.4063L35.5264 108.609C35.2898 109.033 35.4303 109.509 35.8398 109.67C36.0912 109.77 36.3989 109.73 36.6573 109.566L41.4797 106.507C42.4072 105.918 43.2285 105.171 43.8928 104.31L80.6347 61.1137L54.4723 78.4063Z" fill="#029BC5"/>
<path d="M6.66415 77.3979C6.34812 77.2899 5.97202 77.3459 5.65453 77.5481L1.66824 80.0869C1.12508 80.4325 0.908638 81.0971 1.18464 81.5714C1.23723 81.6616 1.30554 81.741 1.38742 81.8064L12.5561 90.7511L24.2988 83.4164L6.66415 77.3979Z" fill="#029BC5"/>
<path d="M16.2995 92.3636L10.2883 100.782C10.2001 100.903 10.2209 101.055 10.3345 101.122C10.4165 101.169 10.5284 101.161 10.6193 101.1L14.3446 98.7391C14.3736 98.7207 14.3998 98.6977 14.4214 98.6715L23.2049 87.992L16.2995 92.3636Z" fill="#029BC5"/>
<path d="M95.7432 45.5176C94.7014 45.3502 93.6206 45.3145 92.5262 45.4107C91.4605 46.9006 90.7795 48.5743 90.5508 50.2648C90.5341 50.6044 90.8079 50.8488 91.1624 50.8108C91.2726 50.7988 91.3822 50.7601 91.4809 50.6981L98.3461 46.3266C97.5434 45.9308 96.667 45.6585 95.7432 45.5176Z" fill="#029BC5"/>
<path d="M80.7822 53.5561L85.2644 50.7254L89.4394 57.8263L84.9572 60.657L80.7822 53.5561Z" fill="#D5D6DB"/>
<path d="M77.9618 56.3646C77.4217 56.7067 77.2058 57.3644 77.48 57.8333L77.9243 58.5931C78.2165 59.0502 78.8836 59.1305 79.4145 58.7725C79.9197 58.4316 80.1231 57.812 79.8797 57.3545L79.4354 56.5947C79.1614 56.1261 78.5019 56.023 77.9618 56.3646V56.3646Z" fill="#3A556A"/>
<path d="M73.9332 58.8664C73.3931 59.2085 73.1772 59.8662 73.4514 60.3352L73.8957 61.095C74.1879 61.552 74.855 61.6324 75.3859 61.2744C75.8911 60.9335 76.0945 60.3138 75.851 59.8563L75.4068 59.0965C75.1326 58.6281 74.4731 58.5249 73.9332 58.8664V58.8664Z" fill="#3A556A"/>
<path d="M69.9033 61.3691C69.3637 61.7116 69.1486 62.3685 69.4226 62.8371L69.8669 63.5968C70.1591 64.0539 70.8262 64.1342 71.3571 63.7763C71.8622 63.4353 72.0657 62.8157 71.8222 62.3582L71.378 61.5984C71.1038 61.1295 70.4436 61.0268 69.9033 61.3691V61.3691Z" fill="#3A556A"/>
<path d="M65.8748 63.8708C65.3352 64.2134 65.1201 64.8703 65.3941 65.3389L65.8384 66.0986C66.1306 66.5557 66.7977 66.636 67.3286 66.2781C67.8337 65.9371 68.0372 65.3175 67.7937 64.86L67.3495 64.1002C67.075 63.6313 66.4149 63.5287 65.8748 63.8708V63.8708Z" fill="#3A556A"/>
<path d="M61.8466 66.3728C61.3067 66.7155 61.0915 67.3727 61.3656 67.8415L61.8102 68.6016C62.0842 69.0702 62.7441 69.1728 63.284 68.8308C63.824 68.4888 64.0396 67.8317 63.7655 67.3631L63.321 66.603C63.0477 66.134 62.388 66.0307 61.8477 66.3721C61.8473 66.3724 61.847 66.3725 61.8466 66.3728Z" fill="#3A556A"/>
<path d="M57.818 68.8746C57.2781 69.2174 57.0629 69.8745 57.337 70.3433L57.7815 71.1034C58.0556 71.572 58.7154 71.6746 59.2554 71.3326C59.7954 70.9906 60.0109 70.3335 59.7369 69.865L59.2924 69.1048C59.0191 68.6358 58.3594 68.5325 57.8191 68.8739C57.8186 68.8742 57.8182 68.8745 57.818 68.8746Z" fill="#3A556A"/>
<path d="M53.7891 71.3766C53.2493 71.7193 53.0341 72.3764 53.3082 72.8452L53.7527 73.6053C54.0274 74.0734 54.6876 74.175 55.227 73.8326C55.7655 73.4907 55.9806 72.835 55.7078 72.367L55.2633 71.6069C54.9894 71.138 54.3295 71.0348 53.7891 71.3766Z" fill="#3A556A"/>
<path d="M49.7603 73.8784C49.2205 74.2211 49.0053 74.8783 49.2794 75.3471L49.7239 76.1072C49.9986 76.5754 50.6588 76.6769 51.1982 76.3345C51.7366 75.9926 51.9518 75.3369 51.679 74.8689L51.2345 74.1087C50.9606 73.6398 50.3007 73.5367 49.7603 73.8784Z" fill="#3A556A"/>
<path d="M45.7318 76.3802C45.192 76.723 44.9768 77.3801 45.2509 77.8489L45.6954 78.609C45.9701 79.0771 46.6303 79.1787 47.1697 78.8362C47.7081 78.4944 47.9233 77.8387 47.6505 77.3707L47.206 76.6106C46.9319 76.1418 46.272 76.0386 45.7318 76.3802Z" fill="#3A556A"/>
<path d="M41.7019 78.8828C41.162 79.2248 40.9464 79.8819 41.2204 80.3505L41.221 80.3514L41.6655 81.1116C41.9402 81.5797 42.6004 81.6813 43.1398 81.3389C43.6782 80.997 43.8934 80.3413 43.6206 79.8732L43.1761 79.1131C42.9022 78.6442 42.2423 78.541 41.7019 78.8828Z" fill="#3A556A"/>
<path d="M37.6744 81.3839C37.1344 81.7259 36.9189 82.383 37.1929 82.8515L37.1935 82.8525L37.638 83.6126C37.9127 84.0808 38.5729 84.1823 39.1123 83.8399C39.6508 83.498 39.8659 82.8423 39.5931 82.3743L39.1486 81.6142C38.8745 81.1455 38.2146 81.0423 37.6744 81.3839Z" fill="#3A556A"/>
</svg>